<svg width="517" height="97" viewBox="0 0 517 97" fill="none" xmlns="http://www.w3.org/2000/svg">
<path d="M157.805 13.1768L153.392 25.5789H166.891L171.304 13.1768H157.805Z" fill="#0E3B8D"/>
<path d="M153.391 30.4675H167.878V78.1825H153.391V30.4675Z" fill="#0E3B8D"/>
<path d="M195.457 60.5256L185.77 30.4675H170.834L188.036 78.1825H202.337L219.539 30.4675H205.144L195.457 60.5256Z" fill="#0E3B8D"/>
<path d="M222.444 30.4675H236.931V78.1825H222.444V30.4675Z" fill="#0E3B8D"/>
<path d="M226.859 13.1768L222.445 25.5789H235.945L240.358 13.1768H226.859Z" fill="#0E3B8D"/>
<path d="M272.211 29.4708C266.146 29.4708 261.708 32.1862 259.087 35.2676V30.4675H244.599V78.1825H259.087V50.931C259.087 45.3158 262.992 42.5083 266.962 42.5083C271.668 42.5083 273.661 46.0377 273.661 50.8379V78.1825H288.149V46.6731C288.149 36.2625 281.992 29.4708 272.211 29.4708Z" fill="#0E3B8D"/>
<path d="M326.806 53.8271C326.806 60.7995 322.9 64.6914 317.481 64.6914C311.322 64.6914 307.978 60.072 307.978 53.0111C307.978 45.9502 311.322 41.424 317.481 41.424C322.914 41.424 326.806 45.3309 326.806 52.3767V53.8271ZM326.626 35.1745C324.365 32.0055 319.472 29.4717 313.769 29.4717C300.732 29.4717 293.222 40.0668 293.222 53.1043C293.222 66.1408 300.732 76.6446 313.769 76.6446C319.472 76.6446 324.365 74.2031 326.626 71.0294V74.1052C326.626 81.1699 322.006 85.2725 316.123 85.2725C311.327 85.2725 307.733 82.2588 306.561 78.1816L292.821 81.7299C296.168 90.4539 304.262 96.23 316.123 96.23C330.771 96.23 341.201 87.2359 341.201 72.4789V30.4863H326.626V35.1745Z" fill="#0E3B8D"/>
<path d="M408.107 30.4845L408.111 17.2494H393.804V30.4233C381.891 30.2059 374.042 29.4906 366.748 29.4906C354.975 29.4906 346.377 35.9218 346.377 45.6039C346.377 55.9222 354.793 58.0061 362.677 59.5449C370.278 60.9021 373.447 61.2635 373.447 64.4279C373.447 66.9672 370.278 68.2312 366.475 68.2312C361.312 68.2312 354.968 66.0862 350.415 61.5628L344.383 72.4318C349.641 76.5966 357.607 79.1877 365.932 79.1877C378.066 79.1877 387.662 73.1189 387.662 62.7083C387.662 51.9372 378.066 49.8515 369.463 48.1338C363.673 47.0439 360.863 46.4717 360.863 43.8589C360.863 41.6866 363.125 40.1317 366.659 40.1317C372.989 40.1317 383.161 41.9549 393.804 42.4565V65.4227C393.804 75.1895 398.964 78.6418 409.286 78.6418C412.196 78.6446 415.102 78.4338 417.978 78.0112V66.1418C416.598 66.3234 415.206 66.4129 413.814 66.41C410.186 66.41 408.101 65.6862 408.101 61.7031L408.105 42.6184C412.009 42.4932 415.251 41.968 417.809 40.031C420.977 37.6272 422.591 33.3947 422.886 30.4854C422.886 30.4798 417.695 30.4835 408.107 30.4845Z" fill="#0E3B8D"/>
<path d="M444.075 67.4058C438.284 67.4058 434.568 62.6989 434.568 54.3683C434.568 46.0387 438.284 41.3318 444.075 41.3318C449.867 41.3318 453.587 46.0387 453.587 54.3683C453.587 62.6989 449.872 67.4058 444.075 67.4058ZM444.075 29.4708C429.954 29.4708 420.149 39.52 420.149 54.373C420.149 69.228 429.914 79.1839 444.075 79.1839C458.109 79.1839 468.002 69.2223 468.002 54.373C468.002 39.5247 458.109 29.4708 444.075 29.4708Z" fill="#0E3B8D"/>
<path d="M500.623 29.4708C494.551 29.4708 490.117 32.1862 487.493 35.2676V30.4675H473.004V78.1825H487.493V50.931C487.493 45.3158 491.396 42.5083 495.365 42.5083C500.079 42.5083 502.073 46.0377 502.073 50.8379V78.1825H516.558V46.6731C516.533 36.2625 510.385 29.4708 500.623 29.4708Z" fill="#0E3B8D"/>
<path d="M120.536 13.1768H105.414V78.1825H149.013V65.2335H120.536V13.1768Z" fill="#0E3B8D"/>
<path d="M70.4604 45.4815L58.717 90.963L46.9736 45.4815H70.4604Z" fill="url(#paint0_linear_3_44)"/>
<path d="M82.2035 0L70.4602 45.4815H0L82.2035 0Z" fill="#18B1F2"/>
<defs>
<linearGradient id="paint0_linear_3_44" x1="58.717" y1="45.4815" x2="58.717" y2="90.963" gradientUnits="userSpaceOnUse">
<stop stop-color="#1965AF"/>
<stop offset="1" stop-color="#18B1F2"/>
</linearGradient>
</defs>
</svg>
